<svg width="96" height="106" viewBox="0 0 96 106" fill="none" xmlns="http://www.w3.org/2000/svg">
<g filter="url(#filter0_d_12_225)">
<path d="M56 55.5746C56 61.3235 50.6165 66 43.9999 66C37.3832 66 32 61.3235 32 55.5746C32 51.467 34.8109 47.7456 39.0813 46.0752V34.254H37.0818C36.3648 34.254 35.7838 33.7496 35.7838 33.1272C35.7838 32.5047 36.3649 32.0003 37.0818 32.0003H40.3783C41.0944 32.0003 41.6756 32.5047 41.6756 33.1272V46.8342C41.6756 47.3096 41.332 47.7332 40.8179 47.8948C37.0958 49.0595 34.595 52.1458 34.595 55.5753C34.595 56.1551 34.6675 56.7195 34.7996 57.2656H53.2005C53.3334 56.7195 53.405 56.155 53.405 55.5753C53.405 52.1847 50.9419 49.1106 47.2762 47.9247C46.7683 47.7606 46.432 47.3393 46.432 46.8684V33.1268C46.4319 32.5044 47.013 32 47.7299 32H50.8659C51.5818 32 52.1628 32.5044 52.1628 33.1268C52.1628 33.7492 51.5817 34.2536 50.8659 34.2536H49.0268V46.1175C53.2329 47.8082 56 51.5139 56 55.5746ZM41.2983 53.6026C41.8347 53.6026 42.2709 53.9817 42.2709 54.4478C42.2709 54.9141 41.8351 55.2935 41.2983 55.2935C40.7613 55.2935 40.3247 54.9144 40.3247 54.4478C40.3247 53.9816 40.7613 53.6026 41.2983 53.6026ZM41.2983 54.1659C41.1195 54.1659 40.9738 54.2919 40.9738 54.4478C40.9738 54.603 41.1195 54.7293 41.2983 54.7293C41.4768 54.7293 41.6216 54.603 41.6216 54.4478C41.6216 54.2923 41.4769 54.1659 41.2983 54.1659ZM42.6485 50.7847C42.6485 50.1375 43.2552 49.6107 43.9998 49.6107C44.7455 49.6107 45.3526 50.1375 45.3526 50.7847C45.3526 51.4324 44.7455 51.9592 43.9998 51.9592C43.2552 51.9592 42.6485 51.4324 42.6485 50.7847ZM43.2964 50.7847C43.2964 51.1217 43.612 51.3958 43.9998 51.3958C44.3882 51.3958 44.7034 51.1217 44.7034 50.7847C44.7034 50.4481 44.3882 50.1741 43.9998 50.1741C43.612 50.174 43.2964 50.4477 43.2964 50.7847Z" fill="url(#paint0_linear_12_225)"/>
</g>
<defs>
<filter id="filter0_d_12_225" x="0" y="0" width="96" height="106" filterUnits="userSpaceOnUse" color-interpolation-filters="sRGB">
<feFlood flood-opacity="0" result="BackgroundImageFix"/>
<feColorMatrix in="SourceAlpha" type="matrix" values="0 0 0 0 0 0 0 0 0 0 0 0 0 0 0 0 0 0 127 0" result="hardAlpha"/>
<feOffset dx="4" dy="4"/>
<feGaussianBlur stdDeviation="18"/>
<feComposite in2="hardAlpha" operator="out"/>
<feColorMatrix type="matrix" values="0 0 0 0 0.201823 0 0 0 0 0.232812 0 0 0 0 0.3125 0 0 0 0.12 0"/>
<feBlend mode="normal" in2="BackgroundImageFix" result="effect1_dropShadow_12_225"/>
<feBlend mode="normal" in="SourceGraphic" in2="effect1_dropShadow_12_225" result="shape"/>
</filter>
<linearGradient id="paint0_linear_12_225" x1="56" y1="45.8165" x2="30.9165" y2="64.5492" gradientUnits="userSpaceOnUse">
<stop stop-color="#FBCB50"/>
<stop offset="0.428342" stop-color="#D87297"/>
<stop offset="1" stop-color="#E36658"/>
</linearGradient>
</defs>
</svg>
