<svg width="30" height="20" viewBox="0 0 30 20" fill="none" xmlns="http://www.w3.org/2000/svg">
<path d="M15 11.8009C16.0309 11.8009 16.8667 10.995 16.8667 10.0009C16.8667 9.00681 16.0309 8.20093 15 8.20093C13.969 8.20093 13.1333 9.00681 13.1333 10.0009C13.1333 10.995 13.969 11.8009 15 11.8009Z" fill="white" stroke="white" stroke-width="2"/>
<path d="M10.8149 6.41406C9.90432 7.4024 9.40137 8.67852 9.40137 10.0006C9.40137 11.3226 9.90432 12.5987 10.8149 13.5871" stroke="white" stroke-width="2" stroke-linecap="round" stroke-linejoin="round"/>
<path d="M19.187 13.5871C20.0976 12.5987 20.6006 11.3226 20.6006 10.0006C20.6006 8.67852 20.0976 7.4024 19.187 6.41406" stroke="white" stroke-width="2" stroke-linecap="round" stroke-linejoin="round"/>
<path d="M7.84131 3.54712C6.14455 5.29754 5.20068 7.6041 5.20068 10.0001C5.20068 12.3961 6.14455 14.7027 7.84131 16.4531" stroke="white" stroke-width="2" stroke-linecap="round" stroke-linejoin="round"/>
<path d="M22.1592 16.4531C23.8559 14.7027 24.7998 12.3961 24.7998 10.0001C24.7998 7.6041 23.8559 5.29754 22.1592 3.54712" stroke="white" stroke-width="2" stroke-linecap="round" stroke-linejoin="round"/>
<path d="M25.4419 19C27.7337 16.523 29.0002 13.3195 29.0002 10C29.0002 6.68049 27.7337 3.47701 25.4419 1" stroke="white" stroke-width="2" stroke-linecap="round" stroke-linejoin="round"/>
<path d="M4.55831 1C2.26655 3.47701 1 6.68049 1 10C1 13.3195 2.26655 16.523 4.55831 19" stroke="white" stroke-width="2" stroke-linecap="round" stroke-linejoin="round"/>
</svg>
